{
  "accessors": [
    {
      "bufferView": 2,
      "componentType": 5126,
      "count": 33054,
      "max": [
        0.09992479532957077,
        0.132429838180542,
        0.16108883917331696
      ],
      "min": [
        -0.09024874120950699,
        -0.12474291026592255,
        -0.08954411745071411
      ],
      "type": "VEC3"
    },
    {
      "bufferView": 2,
      "byteOffset": 396648,
      "componentType": 5126,
      "count": 33054,
      "max": [
        0.9999992847442627,
        0.9999992847442627,
        0.9999996423721313
      ],
      "min": [
        -0.9999817609786987,
        -0.9997812509536743,
        -0.9999948740005493
      ],
      "type": "VEC3"
    },
    {
      "bufferView": 3,
      "componentType": 5126,
      "count": 33054,
      "max": [
        1.0,
        1.0,
        1.0,
        1.0
      ],
      "min": [
        -1.0,
        -1.0,
        -1.0,
        1.0
      ],
      "type": "VEC4"
    },
    {
      "bufferView": 1,
      "componentType": 5126,
      "count": 33054,
      "max": [
        0.9969062209129333,
        0.9999380111694336
      ],
      "min": [
        0.006263348739594221,
        9.751319885253906e-05
      ],
      "type": "VEC2"
    },
    {
      "bufferView": 1,
      "byteOffset": 264432,
      "componentType": 5126,
      "count": 33054,
      "max": [
        0.0,
        0.0
      ],
      "min": [
        0.0,
        0.0
      ],
      "type": "VEC2"
    },
    {
      "bufferView": 1,
      "byteOffset": 528864,
      "componentType": 5126,
      "count": 33054,
      "max": [
        0.9969062209129333,
        0.9999380111694336
      ],
      "min": [
        0.006263348739594221,
        9.751319885253906e-05
      ],
      "type": "VEC2"
    },
    {
      "bufferView": 1,
      "byteOffset": 793296,
      "componentType": 5126,
      "count": 33054,
      "max": [
        0.9969062209129333,
        0.9999380111694336
      ],
      "min": [
        0.006263348739594221,
        9.751319885253906e-05
      ],
      "type": "VEC2"
    },
    {
      "bufferView": 0,
      "componentType": 5125,
      "count": 176412,
      "type": "SCALAR"
    },
    {
      "bufferView": 2,
      "byteOffset": 793296,
      "componentType": 5126,
      "count": 34612,
      "max": [
        0.10441594570875168,
        -0.09798189252614975,
        0.09087925404310226
      ],
      "min": [
        -0.08125937730073929,
        -0.12443044781684875,
        -0.0947960689663887
      ],
      "type": "VEC3"
    },
    {
      "bufferView": 2,
      "byteOffset": 1208640,
      "componentType": 5126,
      "count": 34612,
      "max": [
        1.0,
        1.0,
        1.0
      ],
      "min": [
        -1.0,
        -1.0,
        -1.0
      ],
      "type": "VEC3"
    },
    {
      "bufferView": 1,
      "byteOffset": 1057728,
      "componentType": 5126,
      "count": 34612,
      "max": [
        1.0000001192092896,
        1.0000001192092896
      ],
      "min": [
        0.0,
        0.0
      ],
      "type": "VEC2"
    },
    {
      "bufferView": 1,
      "byteOffset": 1334624,
      "componentType": 5126,
      "count": 34612,
      "max": [
        1.0,
        1.0
      ],
      "min": [
        0.0,
        0.0
      ],
      "type": "VEC2"
    },
    {
      "bufferView": 0,
      "byteOffset": 705648,
      "componentType": 5125,
      "count": 69384,
      "type": "SCALAR"
    }
  ],
  "asset": {
    "extras": {
      "author": "Arturo J. Real (https://sketchfab.com/arturojreal)",
      "license": "CC-BY-4.0 (http://creativecommons.org/licenses/by/4.0/)",
      "source": "https://sketchfab.com/3d-models/deadpool-639a7b0730ff49e98e5900a262f634cb",
      "title": "Deadpool"
    },
    "generator": "Sketchfab-12.66.0",
    "version": "2.0"
  },
  "bufferViews": [
    {
      "buffer": 0,
      "byteLength": 983184,
      "name": "floatBufferViews",
      "target": 34963
    },
    {
      "buffer": 0,
      "byteLength": 1611520,
      "byteOffset": 983184,
      "byteStride": 8,
      "name": "floatBufferViews",
      "target": 34962
    },
    {
      "buffer": 0,
      "byteLength": 1623984,
      "byteOffset": 2594704,
      "byteStride": 12,
      "name": "floatBufferViews",
      "target": 34962
    },
    {
      "buffer": 0,
      "byteLength": 528864,
      "byteOffset": 4218688,
      "byteStride": 16,
      "name": "floatBufferViews",
      "target": 34962
    }
  ],
  "buffers": [
    {
      "byteLength": 4747552,
      "uri": "scene.bin"
    }
  ],
  "images": [
    {
      "uri": "textures/Material_0_baseColor.jpeg"
    },
    {
      "uri": "textures/Material_0_metallicRoughness.png"
    },
    {
      "uri": "textures/Material_0_normal.jpeg"
    }
  ],
  "materials": [
    {
      "name": "Material_0",
      "normalTexture": {
        "index": 2
      },
      "occlusionTexture": {
        "index": 1
      },
      "pbrMetallicRoughness": {
        "baseColorTexture": {
          "index": 0
        },
        "metallicFactor": 0.0,
        "metallicRoughnessTexture": {
          "index": 1
        }
      }
    },
    {
      "doubleSided": true,
      "name": "Material",
      "pbrMetallicRoughness": {
        "baseColorFactor": [
          0.0152085,
          0.0159963,
          0.017642,
          1.0
        ],
        "metallicFactor": 0.0,
        "roughnessFactor": 0.5
      }
    }
  ],
  "meshes": [
    {
      "name": "Object_0",
      "primitives": [
        {
          "attributes": {
            "NORMAL": 1,
            "POSITION": 0,
            "TANGENT": 2,
            "TEXCOORD_0": 3,
            "TEXCOORD_1": 4,
            "TEXCOORD_2": 5,
            "TEXCOORD_3": 6
          },
          "indices": 7,
          "material": 0,
          "mode": 4
        }
      ]
    },
    {
      "name": "Object_1",
      "primitives": [
        {
          "attributes": {
            "NORMAL": 9,
            "POSITION": 8,
            "TEXCOORD_0": 10,
            "TEXCOORD_1": 11
          },
          "indices": 12,
          "material": 1,
          "mode": 4
        }
      ]
    }
  ],
  "nodes": [
    {
      "children": [
        1
      ],
      "matrix": [
        0.8730214238166809,
        0.0,
        0.0,
        0.0,
        0.0,
        1.9384969714246323e-16,
        -0.8730214238166809,
        0.0,
        0.0,
        0.8730214238166809,
        1.9384969714246323e-16,
        0.0,
        0.0,
        0.0,
        0.0,
        1.0
      ],
      "name": "Sketchfab_model"
    },
    {
      "children": [
        2
      ],
      "name": "root"
    },
    {
      "children": [
        3
      ],
      "matrix": [
        1.0,
        0.0,
        0.0,
        0.0,
        0.0,
        2.220446049250313e-16,
        1.0,
        0.0,
        0.0,
        -1.0,
        2.220446049250313e-16,
        0.0,
        0.0,
        0.0,
        0.0,
        1.0
      ],
      "name": "GLTF_SceneRootNode"
    },
    {
      "children": [
        4,
        5
      ],
      "matrix": [
        9.491653442382813,
        0.0,
        0.0,
        0.0,
        0.0,
        9.491653442382813,
        0.0,
        0.0,
        0.0,
        0.0,
        9.491653442382813,
        0.0,
        0.0,
        0.8900174498558044,
        0.0,
        1.0
      ],
      "name": "Mesh_0_1"
    },
    {
      "mesh": 0,
      "name": "Object_4"
    },
    {
      "mesh": 1,
      "name": "Object_5"
    }
  ],
  "samplers": [
    {
      "magFilter": 9729,
      "minFilter": 9987,
      "wrapS": 10497,
      "wrapT": 10497
    }
  ],
  "scene": 0,
  "scenes": [
    {
      "name": "Sketchfab_Scene",
      "nodes": [
        0
      ]
    }
  ],
  "textures": [
    {
      "sampler": 0,
      "source": 0
    },
    {
      "sampler": 0,
      "source": 1
    },
    {
      "sampler": 0,
      "source": 2
    }
  ]
}
