<svg width="216" height="242" viewBox="0 0 216 242" fill="none" xmlns="http://www.w3.org/2000/svg">
<path d="M50.5 122.5L39.5033 122.23L39.5 122.365V122.5H50.5ZM70.5 132L61.9787 125.044L61.9787 125.044L70.5 132ZM118.5 89.9999L110.525 97.576L118.5 89.9999ZM144 96L147.949 106.267L144 96ZM199.5 12.9997L209.285 18.0246L209.285 18.0246L199.5 12.9997ZM203 43.9999L213.842 45.8585L203 43.9999ZM66.4516 183.101C70.6494 178.709 70.4923 171.746 66.1008 167.548C61.7092 163.351 54.7462 163.508 50.5484 167.899L66.4516 183.101ZM20.1633 95.2553C25.2085 85.9788 33.5726 71.7063 41.1515 60.2406C44.9779 54.4517 48.3863 49.712 50.9453 46.7162C51.5643 45.9915 52.0733 45.4404 52.473 45.0411C52.8947 44.6198 53.0721 44.4908 53.0248 44.5257C52.9917 44.55 52.8211 44.6741 52.5235 44.8355C52.2399 44.9894 51.6845 45.2627 50.8948 45.4817C49.2594 45.9351 45.8225 46.2905 42.5301 43.896L55.4699 26.1038C51.6275 23.3093 47.4893 23.596 45.0173 24.2813C42.7465 24.9109 41.0099 26.0527 39.9877 26.8046C37.8578 28.3715 35.8718 30.4903 34.2172 32.4273C30.7595 36.4753 26.7554 42.1231 22.7985 48.1092C14.8108 60.1935 6.12485 75.0209 0.836677 84.7444L20.1633 95.2553ZM42.5301 43.896C41.118 42.869 40.3518 41.7513 40.0252 41.2207C39.6683 40.6408 39.4982 40.2035 39.4488 40.0716C39.3575 39.8278 39.4186 39.9223 39.5419 40.5828C39.7797 41.8567 40.0172 43.9428 40.2069 46.9044C40.5808 52.7442 40.6957 60.7274 40.6501 69.7066C40.5592 87.6436 39.8408 108.478 39.5033 122.23L61.4967 122.77C61.8259 109.355 62.5575 88.0395 62.6499 69.8182C62.696 60.7182 62.5859 52.1201 62.1619 45.4986C61.9526 42.2294 61.6479 39.1148 61.1683 36.5455C60.9328 35.2845 60.5914 33.7968 60.0497 32.3513C59.6843 31.3763 58.5062 28.312 55.4699 26.1038L42.5301 43.896ZM39.5 122.5C39.5 125.899 39.7933 129.925 40.6134 133.799C41.3657 137.354 42.8574 142.271 46.2429 146.118C48.0828 148.208 50.6989 150.219 54.186 151.191C57.7145 152.175 61.1848 151.83 64.2405 150.767C69.8193 148.825 74.6691 144.287 79.0213 138.956L61.9787 125.044C60.2822 127.122 58.9575 128.439 58.0029 129.235C57.0189 130.055 56.6945 130.099 57.0095 129.989C57.1967 129.924 57.5887 129.813 58.1524 129.782C58.7305 129.749 59.3973 129.805 60.0952 130C61.5511 130.406 62.4172 131.196 62.7571 131.582C63.0459 131.91 62.9901 131.973 62.778 131.459C62.5807 130.981 62.3491 130.248 62.1366 129.244C61.7067 127.213 61.5 124.767 61.5 122.5H39.5ZM79.0213 138.956C89.6314 125.959 104.751 102.047 116.65 80.8928C122.636 70.2504 127.982 59.9972 131.647 51.8611C133.46 47.8343 134.996 44.0335 135.968 40.8264C136.446 39.2483 136.899 37.4572 137.103 35.6614C137.247 34.3887 137.592 30.8252 135.685 27.2848L116.315 37.715C115.48 36.1638 115.298 34.827 115.248 34.2519C115.192 33.6195 115.239 33.2211 115.244 33.1774C115.251 33.111 115.205 33.482 114.913 34.4469C114.344 36.3257 113.25 39.1343 111.588 42.8263C108.299 50.1276 103.301 59.7494 97.4752 70.107C85.7493 90.953 71.3686 113.541 61.9787 125.044L79.0213 138.956ZM135.685 27.2848C134.281 24.6767 130.858 20.8561 125.084 20.906C120.639 20.9443 117.702 23.4047 116.695 24.3156C114.33 26.4544 112.632 29.3872 111.526 31.5268C109.024 36.3649 106.56 43.1718 104.777 50.4169C102.991 57.6759 101.717 66.0682 102.024 74.0369C102.32 81.7008 104.155 90.8708 110.525 97.576L126.475 82.4237C125.54 81.4391 124.223 78.7642 124.008 73.1894C123.805 67.9194 124.662 61.6792 126.14 55.6731C127.621 49.6532 129.552 44.5626 131.068 41.6319C131.97 39.8871 132.186 39.9677 131.452 40.6316C131.261 40.8051 129.068 42.8724 125.273 42.9051C120.149 42.9494 117.282 39.5106 116.315 37.715L135.685 27.2848ZM110.525 97.576C116.848 104.232 123.855 107.683 130.972 108.598C137.841 109.481 143.783 107.869 147.949 106.267L140.051 85.7332C137.717 86.6309 135.659 87.0192 133.778 86.7773C132.145 86.5674 129.652 85.7678 126.475 82.4237L110.525 97.576ZM147.949 106.267C155.207 103.475 161.467 97.6184 166.667 91.4893C172.054 85.1392 177.271 77.318 182.194 69.09C191.996 52.7043 201.494 33.1978 209.285 18.0246L189.715 7.9749C181.587 23.8018 172.633 42.2192 163.314 57.7954C158.676 65.5485 154.166 72.2178 149.891 77.257C145.428 82.5172 142.091 84.9487 140.051 85.7332L147.949 106.267ZM209.285 18.0246C209.283 18.0283 209.237 18.118 209.14 18.2688C209.046 18.4152 208.868 18.6761 208.59 18.9975C208.137 19.523 206.826 20.9048 204.497 21.6915C201.723 22.6281 198.773 22.2899 196.391 20.9973C194.403 19.9187 193.389 18.5034 193.042 17.9742C192.373 16.9551 192.355 16.3929 192.554 17.2105C192.695 17.7879 192.865 18.7367 193.014 20.081C193.624 25.6128 193.49 34.3725 192.158 42.1413L213.842 45.8585C215.51 36.1274 215.723 25.3044 214.881 17.6698C214.666 15.7226 214.362 13.7808 213.928 12.0014C213.553 10.4622 212.861 8.07715 211.433 5.90166C210.707 4.79426 209.292 2.96745 206.883 1.66061C204.08 0.139746 200.69 -0.243533 197.458 0.847937C194.67 1.78948 192.883 3.52592 191.936 4.62258C190.927 5.79117 190.214 7.00275 189.715 7.9749L209.285 18.0246ZM192.158 42.1413C189.797 55.9153 179.922 94.5892 163.752 132.41C155.683 151.286 146.211 169.552 135.58 184.272C124.823 199.166 113.629 209.381 102.478 213.762L110.522 234.238C127.371 227.619 141.612 213.495 153.414 197.153C165.342 180.639 175.554 160.771 183.981 141.059C200.807 101.703 211.182 61.3766 213.842 45.8585L192.158 42.1413ZM102.478 213.762C75.9472 224.184 62.077 218.765 57.6817 213.612C54.0143 209.312 51.9252 198.298 66.4516 183.101L50.5484 167.899C32.5748 186.702 26.4857 210.938 40.9433 227.888C54.673 243.985 81.0528 245.815 110.522 234.238L102.478 213.762Z" fill="black"/>
</svg>
